<svg xmlns="http://www.w3.org/2000/svg" viewBox="0 0 32 32" width="32" height="32">
  <defs>
    <linearGradient id="leather" x1="0" y1="0" x2="1" y2="1">
      <stop offset="0" stop-color="#7c4a23"/>
      <stop offset="1" stop-color="#2a2118"/>
    </linearGradient>
    <linearGradient id="amber" x1="0" y1="0" x2="0" y2="1">
      <stop offset="0" stop-color="#e0a256"/>
      <stop offset="1" stop-color="#a35421"/>
    </linearGradient>
  </defs>
  <rect width="32" height="32" rx="7.5" fill="url(#leather)"/>
  <!-- open book: two facing pages -->
  <path d="M16 9.3 C 12.2 7.4 8.3 7.7 5.5 9.1 L 5.5 22.7 C 8.3 21.3 12.2 21.7 16 23.6 Z" fill="#f4e9d3"/>
  <path d="M16 9.3 C 19.8 7.4 23.7 7.7 26.5 9.1 L 26.5 22.7 C 23.7 21.3 19.8 21.7 16 23.6 Z" fill="#fbf6ec"/>
  <!-- page lines -->
  <g stroke="#d6c198" stroke-width="0.7" stroke-linecap="round" fill="none" opacity="0.8">
    <path d="M8.1 11.6 C 10.2 11 12.4 11.1 14.3 11.9"/>
    <path d="M8.1 14.4 C 10.2 13.8 12.4 13.9 14.3 14.7"/>
    <path d="M8.1 17.2 C 10.2 16.6 12.4 16.7 14.3 17.5"/>
  </g>
  <g stroke="#cdb78d" stroke-width="0.7" stroke-linecap="round" fill="none" opacity="0.7">
    <path d="M17.7 11.9 C 19.6 11.1 21.8 11 23.9 11.6"/>
    <path d="M17.7 14.7 C 19.6 13.9 21.8 13.8 23.9 14.4"/>
    <path d="M17.7 17.5 C 19.6 16.7 21.8 16.6 23.9 17.2"/>
  </g>
  <!-- spine -->
  <path d="M16 9.3 L 16 23.6" stroke="url(#amber)" stroke-width="1.5" stroke-linecap="round"/>
  <!-- discovery sparkle -->
  <path d="M24.6 6.2 L 25.2 7.9 L 26.9 8.5 L 25.2 9.1 L 24.6 10.8 L 24 9.1 L 22.3 8.5 L 24 7.9 Z" fill="url(#amber)"/>
</svg>
